<svg width="32" height="32" viewBox="0 0 32 32" fill="none" xmlns="http://www.w3.org/2000/svg">
<g clip-path="url(#clip0_126_68)">
<circle cx="16" cy="16" r="16" fill="#FFFEFE"/>
<path d="M23.5833 12.5H22.695L20.8533 6.65C20.7009 6.16763 20.4239 5.75081 20.0597 5.45577C19.6955 5.16073 19.2617 5.00165 18.8167 5H17.0833C16.4875 5 16 5.5625 16 6.25C16 6.9375 16.4875 7.5 17.0833 7.5H18.8167L20.3983 12.5H15.1875L14.7975 11.25H14.895C15.4908 11.25 15.9783 10.6875 15.9783 10C15.9783 9.3125 15.4908 8.75 14.895 8.75H11.6667C11.0708 8.75 10.5833 9.3125 10.5833 10C10.5833 10.6875 11.0708 11.25 11.6667 11.25H12.4792L14.4508 17.5H13.725C13.2483 14.7125 11.2225 12.65 8.6875 12.5125C5.65417 12.3375 3 15.25 3 18.75C3 22.25 5.38333 25 8.41667 25C11.0817 25 13.2375 22.8875 13.725 20H18.275C18.7517 22.7875 20.7775 24.85 23.3125 24.9875C26.3458 25.15 29 22.25 29 18.7375C29 15.25 26.6167 12.5 23.5833 12.5ZM9.5 20H11.4717C11.0167 21.5375 9.73833 22.6 8.2 22.4875C6.58583 22.375 5.2425 20.8 5.16667 18.925C5.09083 16.7375 6.5425 15 8.41667 15C9.8575 15 11.0383 16.0375 11.4717 17.5H9.5C8.90417 17.5 8.41667 18.0625 8.41667 18.75C8.41667 19.4375 8.90417 20 9.5 20ZM18.275 17.5H16.7583L15.9675 15H19.25C18.7733 15.725 18.4267 16.5625 18.275 17.5ZM23.4533 22.5C21.785 22.425 20.3767 20.7875 20.3333 18.85C20.3117 17.65 20.7558 16.6 21.4708 15.9L22.1425 18.025C22.3483 18.675 22.9658 19.0125 23.5292 18.775C24.0925 18.5375 24.385 17.825 24.1792 17.175L23.4967 15.0125L23.5075 15C23.9418 14.9829 24.3747 15.0676 24.7799 15.2488C25.1851 15.4301 25.5543 15.7043 25.8651 16.0548C26.1759 16.4052 26.422 16.8247 26.5884 17.288C26.7548 17.7512 26.8381 18.2486 26.8333 18.75C26.8333 20.9 25.3383 22.575 23.4533 22.5Z" fill="url(#paint0_linear_126_68)"/>
</g>
<defs>
<linearGradient id="paint0_linear_126_68" x1="3" y1="15" x2="29" y2="15" gradientUnits="userSpaceOnUse">
<stop stop-color="#FFB60D"/>
<stop offset="1" stop-color="#E59317"/>
</linearGradient>
<clipPath id="clip0_126_68">
<rect width="32" height="32" fill="white"/>
</clipPath>
</defs>
</svg>
